# xmcd
#
# Track frame offsets: 
#        182
#        22122
#        34485
#        53400
#        64182
#        83800
#        107830
#        129570
#        159895
#        201962
#        214155
#        229235
#        238427
#        248162
#        267827
#        282882
#        295065
#
# Disc length: 4068 seconds
#
# Revision: 5
# Processed by: cddbd v1.5.2PL0 Copyright (c) Steve Scherf et al.
# Submitted via: ExactAudioCopy v0.95b4
#
DISCID=fc0fe211
DTITLE=The Wedding Present - Bizarro [Camden Deluxe Bonus Tracks]
DYEAR=2001
DGENRE=Rock
TTITLE0=Brassneck
TTITLE1=Crushed
TTITLE2=No
TTITLE3=Thanks
TTITLE4=Kennedy
TTITLE5=What Have I Said Now?
TTITLE6=Granadaland
TTITLE7=Bewitched
TTITLE8=Take Me!
TTITLE9=Be Honest
TTITLE10=Unfaithful (bonus track)
TTITLE11=One Day This Will All Be Yours (bonus track)
TTITLE12=It's Not Unusual (bonus track)
TTITLE13=Brassneck - Single Version (bonus track)
TTITLE14=Don't Talk, Just Kiss (bonus track)
TTITLE15=Gone (bonus track)
TTITLE16=Box Elder (bonus track)
EXTD=
EXTT0=
EXTT1=
EXTT2=
EXTT3=
EXTT4=
EXTT5=
EXTT6=
EXTT7=
EXTT8=
EXTT9=
EXTT10=
EXTT11=
EXTT12=
EXTT13=
EXTT14=
EXTT15=
EXTT16=
PLAYORDER=
